<svg width="512" height="512" viewBox="0 0 512 512" fill="none" xmlns="http://www.w3.org/2000/svg">
  <rect width="512" height="512" rx="20" fill="#F2F2F4"/>
  <circle cx="256" cy="210" r="130" fill="white" stroke="#0D5DA0" stroke-width="10"/>
  <path d="M157 162C169 132 198 115 231 115C281 115 311 151 311 195V257H238C191 257 153 219 153 172C153 169 154 166 157 162Z" fill="#58BBB7"/>
  <path d="M146 136C134 130 119 131 108 140C95 150 90 169 94 185C96 194 104 201 114 203C123 205 134 202 141 196C151 188 160 172 158 157C157 148 153 141 146 136Z" fill="#E68A58"/>
  <path d="M342 137C329 131 314 131 302 139C289 148 283 166 287 182C290 194 300 203 312 205C324 207 336 203 344 193C351 184 357 172 355 160C354 150 350 142 342 137Z" fill="#E68A58"/>
  <path d="M250 258C270 226 302 209 340 209C382 209 416 243 416 285V300H305C275 300 250 275 250 245V258Z" fill="#EB238E"/>
  <circle cx="221" cy="170" r="11" fill="white"/>
  <circle cx="280" cy="170" r="11" fill="white"/>
  <path d="M233 203C242 214 257 214 266 203" stroke="white" stroke-width="8" stroke-linecap="round"/>
  <text x="256" y="410" text-anchor="middle" font-family="Arial, sans-serif" font-size="68" font-weight="700" fill="#0D5DA0">PawLL</text>
</svg>
